<?xml version="1.0" standalone="no"?>
<!DOCTYPE svg PUBLIC "-//W3C//DTD SVG 20010904//EN"
 "http://www.w3.org/TR/2001/REC-SVG-20010904/DTD/svg10.dtd">
<svg version="1.0" xmlns="http://www.w3.org/2000/svg"
 width="700.000000pt" height="700.000000pt" viewBox="0 0 700.000000 700.000000"
 preserveAspectRatio="xMidYMid meet">
<metadata>
Created by potrace 1.11, written by Peter Selinger 2001-2013
</metadata>
<g transform="translate(0.000000,700.000000) scale(0.100000,-0.100000)"
fill="#000000" stroke="none">
<path d="M1397 6124 c-1 -1 -28 -5 -60 -8 -288 -33 -569 -250 -685 -527 -69
-167 -66 -105 -66 -1499 0 -690 3 -1274 6 -1297 59 -358 304 -630 654 -724 74
-20 107 -22 523 -25 l445 -3 560 -559 c335 -335 575 -566 596 -576 40 -18 117
-34 146 -30 57 8 91 17 119 31 16 8 282 267 591 574 l560 560 445 3 c409 3
450 5 519 24 202 54 349 150 482 312 79 98 158 280 175 407 4 32 7 625 7 1318
l0 1260 -23 90 c-73 282 -257 496 -521 605 -59 24 -109 38 -205 57 -19 4
-4264 11 -4268 7z m4191 -588 c76 -10 145 -53 191 -121 56 -81 54 -27 55
-1290 1 -643 -2 -1200 -6 -1236 -12 -125 -102 -229 -218 -255 -19 -4 -253 -8
-520 -9 l-485 -1 -56 -26 c-48 -22 -127 -97 -548 -517 -270 -270 -495 -491
-501 -491 -5 0 -231 221 -501 491 -419 418 -501 495 -548 518 l-56 25 -501 1
-500 1 -57 27 c-70 35 -130 102 -153 170 -16 48 -17 144 -17 1252 0 660 3
1217 7 1239 8 40 43 104 80 144 37 41 114 74 191 81 87 7 4084 5 4143 -3z"/>
<path d="M1935 4935 c-153 -61 -224 -232 -159 -382 30 -69 73 -114 142 -149
l57 -28 1505 0 c828 0 1519 3 1537 6 137 25 242 163 230 303 -3 33 -13 77 -22
98 -22 53 -80 114 -139 145 l-51 27 -1520 2 -1520 2 -60 -24z"/>
<path d="M1942 3771 c-121 -42 -193 -150 -188 -281 5 -101 41 -168 126 -231
67 -48 76 -49 748 -49 609 0 633 1 685 20 65 24 126 81 159 147 31 64 32 177
2 244 -25 53 -82 112 -139 143 -40 21 -46 21 -690 23 -607 2 -653 1 -703 -16z"/>
</g>
</svg>
